# xmcd
#
# Track frame offsets:
#	150
#	19600
#	36687
#	56015
#	66572
#	81892
#	98287
#	118755
#	133190
#	147282
#	163627
#	179347
#
# Disc length: 2604 seconds
# Revision: 1
# Processed by: cddbd v1.5.2PL0 Copyright (c) Steve Scherf et al.
# Submitted via: dBpowerAMP V12.0
#
DISCID=ab0a2a0c
DTITLE=Kris Kristofferson - Songs of Kristofferson
DYEAR=1990
DGENRE=Country
TTITLE0=The Silver Tongued Devil
TTITLE1=Loving Her was Easier (than anything I'll ever do again)
TTITLE2=Me and Bobby McGee
TTITLE3=Help Me Make it Through the Night
TTITLE4=For the Good Times
TTITLE5=You Show Me Yours (and I'll Show You Mine)
TTITLE6=Sunday Mornin' Comin' Down
TTITLE7=The Pilgrim: Chapter 33 (Hang in Hopper)
TTITLE8=Stranger
TTITLE9=I Got a Life of My Own
TTITLE10=Why Me
TTITLE11=Who's to Bless and Who's to Blame
EXTD=
EXTT0=
EXTT1=
EXTT2=
EXTT3=
EXTT4=
EXTT5=
EXTT6=
EXTT7=
EXTT8=
EXTT9=
EXTT10=
EXTT11=
PLAYORDER=
